<?xml version="1.0" encoding="UTF-8"?>
<svg xmlns="http://www.w3.org/2000/svg" xmlns:xlink="http://www.w3.org/1999/xlink" width="70pt" height="42pt" viewBox="0 0 70 42" version="1.1">
<g id="surface1">
<path style=" stroke:none;fill-rule:nonzero;fill:rgb(0%,0%,0%);fill-opacity:1;" d="M 16.515625 10.949219 L 29.71875 10.949219 L 29.71875 11.992188 L 17.726562 11.992188 L 17.726562 19.84375 L 29.003906 19.84375 L 29.003906 20.886719 L 17.726562 20.886719 L 17.726562 29.507812 L 29.855469 29.507812 L 29.855469 30.550781 L 16.515625 30.550781 Z M 30.902344 10.949219 L 32.304688 10.949219 L 38.519531 19.570312 L 44.875 10.949219 L 53.515625 0 L 39.320312 20.476562 L 46.636719 30.550781 L 45.179688 30.550781 L 38.519531 21.382812 L 31.835938 30.550781 L 30.40625 30.550781 L 37.777344 20.476562 Z M 47.15625 11.992188 L 47.15625 10.949219 L 62.203125 10.949219 L 62.203125 11.992188 L 55.273438 11.992188 L 55.273438 30.550781 L 54.0625 30.550781 L 54.0625 11.992188 Z M 0 10.949219 L 1.511719 10.949219 L 22.375 41.984375 L 13.753906 30.550781 L 1.265625 12.433594 L 1.210938 30.550781 L 0 30.550781 Z M 62.082031 29.195312 C 61.835938 29.195312 61.648438 29.003906 61.648438 28.757812 C 61.648438 28.511719 61.835938 28.320312 62.082031 28.320312 C 62.332031 28.320312 62.515625 28.511719 62.515625 28.757812 C 62.515625 29.003906 62.332031 29.195312 62.082031 29.195312 Z M 63.269531 28.046875 L 63.917969 28.046875 C 63.925781 28.394531 64.183594 28.628906 64.558594 28.628906 C 64.980469 28.628906 65.21875 28.375 65.21875 27.90625 L 65.21875 24.914062 L 65.878906 24.914062 L 65.878906 27.90625 C 65.878906 28.757812 65.382812 29.246094 64.566406 29.246094 C 63.796875 29.246094 63.269531 28.773438 63.269531 28.046875 Z M 66.742188 28.007812 L 67.394531 28.007812 C 67.449219 28.410156 67.84375 28.664062 68.414062 28.664062 C 68.941406 28.664062 69.332031 28.390625 69.332031 28.015625 C 69.332031 27.695312 69.085938 27.5 68.523438 27.367188 L 67.976562 27.238281 C 67.207031 27.058594 66.855469 26.6875 66.855469 26.066406 C 66.855469 25.316406 67.472656 24.8125 68.402344 24.8125 C 69.265625 24.8125 69.894531 25.316406 69.933594 26.027344 L 69.289062 26.027344 C 69.230469 25.636719 68.886719 25.394531 68.394531 25.394531 C 67.871094 25.394531 67.523438 25.644531 67.523438 26.023438 C 67.523438 26.324219 67.75 26.5 68.300781 26.628906 L 68.769531 26.742188 C 69.640625 26.945312 70 27.296875 70 27.929688 C 70 28.738281 69.371094 29.246094 68.363281 29.246094 C 67.421875 29.246094 66.789062 28.761719 66.742188 28.007812 Z M 66.742188 28.007812 "/>
</g>
</svg>
